<?xml version="1.0" encoding="UTF-8" standalone="no"?>
<!-- Created with Inkscape (http://www.inkscape.org/) -->

<svg
   width="199.96283mm"
   height="200.04793mm"
   viewBox="0 0 199.96283 200.04793"
   version="1.1"
   id="svg3454"
   xml:space="preserve"
   inkscape:version="1.2.2 (b0a8486541, 2022-12-01)"
   sodipodi:docname="nextcloud.maison-maugis.svg"
   xmlns:inkscape="http://www.inkscape.org/namespaces/inkscape"
   xmlns:sodipodi="http://sodipodi.sourceforge.net/DTD/sodipodi-0.dtd"
   xmlns:xlink="http://www.w3.org/1999/xlink"
   xmlns="http://www.w3.org/2000/svg"
   xmlns:svg="http://www.w3.org/2000/svg"><sodipodi:namedview
     id="namedview3456"
     pagecolor="#ffffff"
     bordercolor="#000000"
     borderopacity="0.25"
     inkscape:showpageshadow="2"
     inkscape:pageopacity="0"
     inkscape:pagecheckerboard="true"
     inkscape:deskcolor="#d1d1d1"
     inkscape:document-units="mm"
     showgrid="false"
     showguides="true"
     inkscape:zoom="0.914906"
     inkscape:cx="358.50677"
     inkscape:cy="526.28357"
     inkscape:window-width="1706"
     inkscape:window-height="1243"
     inkscape:window-x="898"
     inkscape:window-y="307"
     inkscape:window-maximized="0"
     inkscape:current-layer="layer1"><sodipodi:guide
       position="99.981423,199.59288"
       orientation="1,0"
       id="guide3679"
       inkscape:locked="false" /></sodipodi:namedview><defs
     id="defs3451"><inkscape:path-effect
       effect="envelope"
       id="path-effect8029"
       is_visible="true"
       lpeversion="1"
       yy="true"
       xx="false"
       bendpath1="M 1.5499891,174.95606 H 598.44989"
       bendpath2="M 598.44989,174.95606 V 565.85072"
       bendpath3="M 1.5499891,565.85072 H 598.44989"
       bendpath4="M 1.5499891,174.95606 V 565.85072" /><inkscape:perspective
       sodipodi:type="inkscape:persp3d"
       inkscape:vp_x="-50.000004 : 406.04789 : 1"
       inkscape:vp_y="0 : 999.99993 : 0"
       inkscape:vp_z="700.00002 : 406.04789 : 1"
       inkscape:persp3d-origin="299.99998 : 206.0479 : 1"
       id="perspective44" /><inkscape:perspective
       sodipodi:type="inkscape:persp3d"
       inkscape:vp_x="-50.000004 : 406.04789 : 1"
       inkscape:vp_y="0 : 999.99993 : 0"
       inkscape:vp_z="700.00002 : 406.04789 : 1"
       inkscape:persp3d-origin="299.99998 : 206.0479 : 1"
       id="perspective43" /><inkscape:perspective
       sodipodi:type="inkscape:persp3d"
       inkscape:vp_x="-50.000004 : 406.04789 : 1"
       inkscape:vp_y="0 : 999.99993 : 0"
       inkscape:vp_z="700.00002 : 406.04789 : 1"
       inkscape:persp3d-origin="299.99998 : 206.0479 : 1"
       id="perspective42" /><inkscape:perspective
       sodipodi:type="inkscape:persp3d"
       inkscape:vp_x="-50.000004 : 406.04789 : 1"
       inkscape:vp_y="0 : 999.99993 : 0"
       inkscape:vp_z="700.00002 : 406.04789 : 1"
       inkscape:persp3d-origin="299.99998 : 206.0479 : 1"
       id="perspective41" /><inkscape:perspective
       sodipodi:type="inkscape:persp3d"
       inkscape:vp_x="-50.000004 : 406.04789 : 1"
       inkscape:vp_y="0 : 999.99993 : 0"
       inkscape:vp_z="700.00002 : 406.04789 : 1"
       inkscape:persp3d-origin="299.99998 : 206.0479 : 1"
       id="perspective40" /><inkscape:perspective
       sodipodi:type="inkscape:persp3d"
       inkscape:vp_x="-50.000004 : 406.04789 : 1"
       inkscape:vp_y="0 : 999.99993 : 0"
       inkscape:vp_z="700.00002 : 406.04789 : 1"
       inkscape:persp3d-origin="299.99998 : 206.0479 : 1"
       id="perspective39" /><inkscape:perspective
       sodipodi:type="inkscape:persp3d"
       inkscape:vp_x="-50.000004 : 406.04789 : 1"
       inkscape:vp_y="0 : 999.99993 : 0"
       inkscape:vp_z="700.00002 : 406.04789 : 1"
       inkscape:persp3d-origin="299.99998 : 206.0479 : 1"
       id="perspective38" /><inkscape:perspective
       sodipodi:type="inkscape:persp3d"
       inkscape:vp_x="-50.000004 : 406.04789 : 1"
       inkscape:vp_y="0 : 999.99993 : 0"
       inkscape:vp_z="700.00002 : 406.04789 : 1"
       inkscape:persp3d-origin="299.99998 : 206.0479 : 1"
       id="perspective37" /><inkscape:perspective
       sodipodi:type="inkscape:persp3d"
       inkscape:vp_x="-50.000004 : 406.04789 : 1"
       inkscape:vp_y="0 : 999.99993 : 0"
       inkscape:vp_z="700.00002 : 406.04789 : 1"
       inkscape:persp3d-origin="299.99998 : 206.0479 : 1"
       id="perspective36" /><inkscape:perspective
       sodipodi:type="inkscape:persp3d"
       inkscape:vp_x="-50.000004 : 406.04789 : 1"
       inkscape:vp_y="0 : 999.99993 : 0"
       inkscape:vp_z="700.00002 : 406.04789 : 1"
       inkscape:persp3d-origin="299.99998 : 206.0479 : 1"
       id="perspective35" /><linearGradient
       id="linearGradient2893"><stop
         style="stop-color:white;stop-opacity:0.3137255;"
         offset="0"
         id="stop2895" /><stop
         id="stop2897"
         offset="0.19"
         style="stop-color:white;stop-opacity:0.25098041;" /><stop
         style="stop-color:#6b6b6b;stop-opacity:0.1254902;"
         offset="0.60000002"
         id="stop2901" /><stop
         style="stop-color:black;stop-opacity:0.1254902;"
         offset="1"
         id="stop2899" /></linearGradient><linearGradient
       id="linearGradient2885"><stop
         id="stop2887"
         offset="0"
         style="stop-color:white;stop-opacity:1;" /><stop
         style="stop-color:white;stop-opacity:1;"
         offset="0.22857143"
         id="stop2891" /><stop
         id="stop2889"
         offset="1"
         style="stop-color:black;stop-opacity:1;" /></linearGradient><linearGradient
       id="linearGradient2955"><stop
         id="stop2867"
         offset="0"
         style="stop-color:#fd0000;stop-opacity:1;" /><stop
         style="stop-color:#e77275;stop-opacity:0.65882355;"
         offset="0.5"
         id="stop2873" /><stop
         style="stop-color:black;stop-opacity:0.32291666;"
         offset="1"
         id="stop2959" /></linearGradient><radialGradient
       inkscape:collect="always"
       xlink:href="#linearGradient2955"
       id="radialGradient2961"
       cx="225.52438"
       cy="218.90099"
       fx="225.52438"
       fy="218.90099"
       r="300"
       gradientTransform="matrix(-4.167939e-4,2.182867,-1.884232,-3.599562e-4,615.5972,-289.1214)"
       gradientUnits="userSpaceOnUse" /><polygon
       id="star"
       transform="scale(53)"
       points="0.95105652,-0.30901699 -0.58778525,0.80901699 0,-1 0.58778525,0.80901699 -0.95105652,-0.30901699 " /><clipPath
       id="clip"><path
         d="M 0,-200 V 600 H 300 V -200 Z"
         id="path10" /></clipPath><radialGradient
       inkscape:collect="always"
       xlink:href="#linearGradient2955"
       id="radialGradient1911"
       gradientUnits="userSpaceOnUse"
       gradientTransform="matrix(-4.167939e-4,2.182867,-1.884232,-3.599562e-4,615.5972,-289.1214)"
       cx="225.52438"
       cy="218.90099"
       fx="225.52438"
       fy="218.90099"
       r="300" /><radialGradient
       inkscape:collect="always"
       xlink:href="#linearGradient2955"
       id="radialGradient2865"
       gradientUnits="userSpaceOnUse"
       gradientTransform="matrix(0,1.748721,-1.593162,-1.049767e-7,551.7876,-191.2898)"
       cx="225.52438"
       cy="218.90099"
       fx="225.52438"
       fy="218.90099"
       r="300" /><radialGradient
       inkscape:collect="always"
       xlink:href="#linearGradient2955"
       id="radialGradient2871"
       gradientUnits="userSpaceOnUse"
       gradientTransform="matrix(0,1.386237,-1.323286,-5.741131e-8,-158.0823,-109.5408)"
       cx="225.52438"
       cy="218.90099"
       fx="225.52438"
       fy="218.90099"
       r="300" /><radialGradient
       inkscape:collect="always"
       xlink:href="#linearGradient2893"
       id="radialGradient3163"
       gradientUnits="userSpaceOnUse"
       gradientTransform="matrix(1.353218,0,0,1.348928,-77.62935,-85.74693)"
       cx="221.44487"
       cy="226.33101"
       fx="221.44487"
       fy="226.33101"
       r="300" /><radialGradient
       gradientTransform="matrix(1.353218,0,0,1.348928,-77.62935,-85.74693)"
       gradientUnits="userSpaceOnUse"
       xlink:href="#linearGradient2893"
       id="radialGradient2710"
       fy="226.33101"
       fx="221.44487"
       r="300"
       cy="226.33101"
       cx="221.44487" /><radialGradient
       gradientTransform="matrix(0,1.386237,-1.323286,-5.741131e-8,-158.0823,-109.5408)"
       gradientUnits="userSpaceOnUse"
       xlink:href="#linearGradient2955"
       id="radialGradient2708"
       fy="218.90099"
       fx="225.52438"
       r="300"
       cy="218.90099"
       cx="225.52438" /><radialGradient
       gradientTransform="matrix(0,1.748721,-1.593162,-1.049767e-7,551.7876,-191.2898)"
       gradientUnits="userSpaceOnUse"
       xlink:href="#linearGradient2955"
       id="radialGradient2706"
       fy="218.90099"
       fx="225.52438"
       r="300"
       cy="218.90099"
       cx="225.52438" /><radialGradient
       gradientTransform="matrix(-4.167939e-4,2.182867,-1.884232,-3.599562e-4,615.5972,-289.1214)"
       gradientUnits="userSpaceOnUse"
       xlink:href="#linearGradient2955"
       id="radialGradient2704"
       fy="218.90099"
       fx="225.52438"
       r="300"
       cy="218.90099"
       cx="225.52438" /><clipPath
       id="clipPath2700"><path
         id="path2702"
         d="M 0,-200 V 600 H 300 V -200 Z" /></clipPath><polygon
       id="polygon2698"
       transform="scale(53)"
       points="0.95105652,-0.30901699 -0.58778525,0.80901699 0,-1 0.58778525,0.80901699 -0.95105652,-0.30901699 " /><radialGradient
       gradientTransform="matrix(-4.167939e-4,2.182867,-1.884232,-3.599562e-4,615.5972,-289.1214)"
       gradientUnits="userSpaceOnUse"
       xlink:href="#linearGradient2955"
       id="radialGradient2696"
       fy="218.90099"
       fx="225.52438"
       r="300"
       cy="218.90099"
       cx="225.52438" /><inkscape:perspective
       id="perspective2667"
       inkscape:persp3d-origin="299.99998 : 26.047914 : 1"
       inkscape:vp_z="600.00006 : 136.04791 : 1"
       inkscape:vp_y="0 : 999.99993 : 0"
       inkscape:vp_x="0 : 136.04791 : 1"
       sodipodi:type="inkscape:persp3d" /><clipPath
       clipPathUnits="userSpaceOnUse"
       id="clipPath10866-6"><path
         id="path10868-7"
         style="color:#000000;display:inline;fill:#fcef3c;fill-rule:evenodd;stroke:none;stroke-width:3.79996;stroke-dasharray:none;stroke-opacity:1"
         inkscape:label="chevron haut"
         d="M 80.44062,2.8095788 -32.52423,129.96192 c 0.004,38.40254 3.424591,76.80494 9.226563,112.58399 L 190.59101,2.8095788 Z m 329.57617,0 213.35157,239.0820312 c 5.07217,-32.40218 9.46264,-74.98766 9.13867,-112.48438 L 520.07148,2.8095788 Z M 300.29023,5.4169988 1.2120988,342.05763 c 6.33237,20.71721 25.7091902,66.65245 35.0468702,83.80273 L 300.29023,129.91895 564.01484,425.45021 c 8.31195,-14.61217 28.54433,-63.59251 34.95313,-83.70704 z m 0,246.7265612 c 0,0 -136.74563,153.87741 -219.94922,247.53126 10.35323,16.0334 37.88331,51.22891 51.59765,65.66992 80.89677,-90.67442 168.35157,-188.69922 168.35157,-188.69922 l 167.97266,188.23047 c 12.78083,-12.86366 41.93133,-50.00922 51.78515,-65.29688 C 436.99373,406.06374 300.29023,252.14356 300.29023,252.14356 Z" /></clipPath><clipPath
       clipPathUnits="userSpaceOnUse"
       id="clipPath10866-3"><path
         id="path10868-5"
         style="color:#000000;display:inline;fill:#fcef3c;fill-rule:evenodd;stroke:none;stroke-width:3.79996;stroke-dasharray:none;stroke-opacity:1"
         inkscape:label="chevron haut"
         d="M 80.44062,2.8095788 -32.52423,129.96192 c 0.004,38.40254 3.424591,76.80494 9.226563,112.58399 L 190.59101,2.8095788 Z m 329.57617,0 213.35157,239.0820312 c 5.07217,-32.40218 9.46264,-74.98766 9.13867,-112.48438 L 520.07148,2.8095788 Z M 300.29023,5.4169988 1.2120988,342.05763 c 6.33237,20.71721 25.7091902,66.65245 35.0468702,83.80273 L 300.29023,129.91895 564.01484,425.45021 c 8.31195,-14.61217 28.54433,-63.59251 34.95313,-83.70704 z m 0,246.7265612 c 0,0 -136.74563,153.87741 -219.94922,247.53126 10.35323,16.0334 37.88331,51.22891 51.59765,65.66992 80.89677,-90.67442 168.35157,-188.69922 168.35157,-188.69922 l 167.97266,188.23047 c 12.78083,-12.86366 41.93133,-50.00922 51.78515,-65.29688 C 436.99373,406.06374 300.29023,252.14356 300.29023,252.14356 Z" /></clipPath><clipPath
       clipPathUnits="userSpaceOnUse"
       id="clipPath8812"><circle
         id="circle8814"
         cx="95.669289"
         cy="95.669296"
         r="79.724197"
         style="fill:#00080d;fill-opacity:1;stroke-width:1" /></clipPath></defs><g
     inkscape:label="Calque 1"
     inkscape:groupmode="layer"
     id="layer1"
     transform="translate(-10.037163,-9.2917782)"><g
       inkscape:label="Calque 1"
       id="layer1-36"
       transform="translate(-15.571251,-28.095079)"
       sodipodi:insensitive="true"><g
         id="g3325"
         transform="matrix(0.3332714,0,0,0.30336655,25.608414,37.181631)"><g
           id="layer3"
           inkscape:label="Fond écu"
           style="display:inline"><path
             id="path8257"
             style="display:inline;fill:#e20909;fill-opacity:1;fill-rule:evenodd;stroke:none;stroke-width:1px;stroke-linecap:butt;stroke-linejoin:miter;stroke-opacity:1"
             d="m 300,658.5 c 0,0 298.50001,-112.32031 298.50001,-397.77183 0,-285.451524 0,-258.5516935 0,-258.5516935 H 1.5 V 260.72817 C 1.5,546.17969 300,658.5 300,658.5 Z"
             sodipodi:nodetypes="cccccc"
             inkscape:label="fond rouge" /><path
             id="path2855"
             clip-path="none"
             style="font-variation-settings:normal;display:inline;opacity:1;vector-effect:none;fill:#ffff00;fill-opacity:1;fill-rule:evenodd;stroke:#000000;stroke-width:2.89134;stroke-linecap:butt;stroke-linejoin:miter;stroke-miterlimit:4;stroke-dasharray:none;stroke-dashoffset:0;stroke-opacity:1;-inkscape-stroke:none;stop-color:#000000;stop-opacity:1"
             inkscape:label="fond rouge"
             d="M 80.440615,2.8095757 1.4992081,91.665046 V 214.75294 L 190.59101,2.8095757 Z m 329.576175,0 L 598.49922,214.02247 V 91.116217 L 520.07148,2.8095757 Z M 300.29023,5.4169976 8.448427,333.91114 c 6.298737,32.66663 16.554068,62.62096 29.640625,89.89844 L 300.29023,129.91895 562.12422,423.33107 c 13.03764,-27.27142 23.24492,-57.20983 29.5,-89.85743 z m 0,246.7265624 c 0,0 -133.58171,150.31822 -217.048833,244.26758 17.634093,22.70185 36.863323,42.73603 56.345703,60.36133 77.60516,-86.98494 160.70313,-180.12695 160.70313,-180.12695 L 460.75898,556.46583 C 480.2054,538.84112 499.39274,518.81345 516.98359,496.12794 433.64862,402.29661 300.29023,252.14356 300.29023,252.14356 Z" /></g><g
           id="layer4"
           inkscape:label="Meubles"
           style="display:none" /><g
           id="layer2"
           inkscape:label="Reflet final"
           style="display:inline"><path
             sodipodi:nodetypes="cccccc"
             d="m 300.00001,658.5 c 0,0 298.5,-112.32031 298.5,-397.77183 0,-285.451504 0,-258.5516835 0,-258.5516835 H 1.5 V 260.72817 C 1.5,546.17969 300.00001,658.5 300.00001,658.5 Z"
             style="display:inline;opacity:1;fill:url(#radialGradient3163);fill-opacity:1;fill-rule:evenodd;stroke:none;stroke-width:1px;stroke-linecap:butt;stroke-linejoin:miter;stroke-opacity:1"
             id="path2875"
             inkscape:export-xdpi="144"
             inkscape:export-ydpi="144" /></g><g
           id="layer1-3"
           inkscape:label="Contour final"
           style="display:inline"><path
             sodipodi:nodetypes="cccccc"
             d="m 299.99999,658.50028 c 0,0 -298.49999,-112.32036 -298.49999,-397.772 0,-285.451616 0,-258.5517843 0,-258.5517843 H 598.49999 V 260.72828 c 0,285.45164 -298.5,397.772 -298.5,397.772 z"
             style="display:inline;opacity:1;fill:none;fill-opacity:1;fill-rule:evenodd;stroke:#000000;stroke-width:3;stroke-linecap:butt;stroke-linejoin:miter;stroke-miterlimit:4;stroke-dasharray:none;stroke-opacity:1"
             id="path1411"
             inkscape:export-xdpi="144"
             inkscape:export-ydpi="144" /></g></g><g
         id="rect4570"
         transform="matrix(1.2600457,0,0,1.4697114,-6.7150936,-39.077623)" /></g><g
       id="g3898"
       transform="matrix(1.2264135,0,0,1.2264135,28.575045,33.999136)"><path
         inkscape:connector-curvature="0"
         id="path1052"
         d="m 66.407896,9.375 c -11.805271,0 -21.811217,8.003196 -24.912392,18.846621 -2.695245,-5.751517 -8.535934,-9.780938 -15.263394,-9.780938 -9.25185,0 -16.85711,7.605263 -16.85711,16.857108 0,9.251833 7.60526,16.860567 16.85711,16.860567 6.72746,0 12.568149,-4.031885 15.263395,-9.784412 3.101175,10.84425 13.10712,18.850106 24.912391,18.850106 11.717964,0 21.67289,-7.885111 24.853382,-18.607048 2.745036,5.621934 8.513436,9.541354 15.145342,9.541354 9.25185,0 16.86057,-7.608734 16.86057,-16.860567 0,-9.251845 -7.60872,-16.857108 -16.86057,-16.857108 -6.631906,0 -12.400306,3.916965 -15.145342,9.537891 C 88.080786,17.257475 78.12586,9.375 66.407896,9.375 Z m 0,9.895518 c 8.911648,0 16.030748,7.115653 16.030748,16.027273 0,8.911605 -7.1191,16.030737 -16.030748,16.030737 -8.911593,0 -16.027247,-7.119132 -16.027247,-16.030737 0,-8.91162 7.115653,-16.027271 16.027247,-16.027273 z M 26.23211,28.336202 c 3.90438,0 6.96505,3.057188 6.96505,6.961589 0,3.904386 -3.06067,6.965049 -6.96505,6.965049 -3.90439,0 -6.96161,-3.060663 -6.96161,-6.965049 0,-3.904401 3.05722,-6.961589 6.96161,-6.961589 z m 80.17451,0 c 3.90442,0 6.96506,3.057188 6.96506,6.961589 0,3.904386 -3.06066,6.965049 -6.96506,6.965049 -3.90436,0 -6.961576,-3.060663 -6.961576,-6.965049 0,-3.904401 3.057226,-6.961589 6.961576,-6.961589 z"
         style="color:#000000;font-style:normal;font-variant:normal;font-weight:normal;font-stretch:normal;font-size:medium;line-height:normal;font-family:sans-serif;text-indent:0;text-align:start;text-decoration:none;text-decoration-line:none;text-decoration-style:solid;text-decoration-color:#000000;letter-spacing:normal;word-spacing:normal;text-transform:none;writing-mode:lr-tb;direction:ltr;baseline-shift:baseline;text-anchor:start;white-space:normal;clip-rule:nonzero;display:inline;overflow:visible;visibility:visible;opacity:1;isolation:auto;mix-blend-mode:normal;color-interpolation:sRGB;color-interpolation-filters:linearRGB;solid-color:#000000;solid-opacity:1;fill:#0082c9;fill-opacity:1;fill-rule:nonzero;stroke:none;stroke-width:5.5659;stroke-linecap:butt;stroke-linejoin:miter;stroke-miterlimit:10;stroke-dasharray:none;stroke-dashoffset:0;stroke-opacity:1;color-rendering:auto;image-rendering:auto;shape-rendering:auto;text-rendering:auto;enable-background:accumulate"
         inkscape:export-filename="Nextcloud Hub logo variants.png"
         inkscape:export-xdpi="300"
         inkscape:export-ydpi="300" /><path
         style="fill:#0082c9;fill-opacity:1;stroke-width:0.470385"
         d="m 21.235693,69.043756 c -0.32926,0 -0.47147,0.187936 -0.47147,0.517242 V 83.20368 c 0,0.32927 0.14221,0.51495 0.47147,0.51495 h 0.37763 c 0.32927,0 0.51494,-0.18568 0.51494,-0.51495 V 71.874833 l 7.4473,11.557727 c 0.0324,0.0505 0.0677,0.0842 0.10299,0.12123 0.0106,0.0125 0.0179,0.0256 0.0298,0.0366 0.0317,0.0289 0.0665,0.044 0.10065,0.0618 0.019,0.01 0.0338,0.0247 0.055,0.032 0.0148,0.005 0.0304,0.002 0.0458,0.006 0.0525,0.0135 0.10618,0.0275 0.16936,0.0275 h 0.37534 c 0.32926,0 0.47146,-0.18567 0.47146,-0.51495 V 69.560768 c 0,-0.329305 -0.1422,-0.517241 -0.47146,-0.517241 h -0.37534 c -0.32929,0 -0.51724,0.187936 -0.51724,0.517241 V 80.89011 l -7.4473,-11.557716 c -0.0254,-0.03939 -0.0561,-0.06339 -0.0847,-0.0939 -0.086,-0.121611 -0.2222,-0.194545 -0.41654,-0.194545 z m 89.420157,0.187676 c -0.32926,0 -0.18767,0.187956 -0.18767,0.517241 v 4.657417 c 0,0.47037 0.0456,0.79872 0.0456,0.79872 h -0.0456 c 0,0 -0.89419,-2.06893 -3.38722,-2.06893 -2.72821,0 -4.65771,2.16372 -4.56357,5.36231 0,3.19862 1.74024,5.41041 4.51551,5.41041 2.68118,0 3.5749,-2.16508 3.5749,-2.16508 h 0.048 c 0,0 -0.0939,0.28283 -0.0939,0.65913 v 0.79874 c 0,0.32926 0.18796,0.47148 0.51726,0.47148 h 0.32955 c 0.32927,0 0.46917,-0.18798 0.46917,-0.51724 V 69.748673 c 0,-0.329285 -0.51754,-0.517241 -0.84681,-0.517241 z m -36.549859,0.0481 c -0.329276,0 -0.13961,0.187976 -0.13961,0.517241 V 81.32017 c 0,2.25783 1.503766,2.54039 2.350463,2.54039 0.376301,0 0.517217,-0.18796 0.517217,-0.51721 v -0.32958 c 0,-0.32926 -0.188212,-0.46918 -0.423394,-0.46918 -0.470405,-0.047 -1.080249,-0.18887 -1.080249,-1.50594 V 69.79677 c 0,-0.329266 -0.517531,-0.517241 -0.846807,-0.517241 z M 57.220266,70.50169 c -0.32927,0 -0.517238,0.187975 -0.517238,0.51724 v 2.44659 1.17638 5.31423 c 0,2.44599 1.365105,3.81064 3.622946,3.81064 0.42334,0 0.563011,-0.13993 0.563011,-0.46918 v -0.2838 c 0,-0.37629 -0.139671,-0.47024 -0.563011,-0.51724 -0.799652,-0.047 -2.258905,-0.32912 -2.258905,-2.72809 v -5.17464 h 2.117009 c 0.329268,0 0.517238,-0.1399 0.517238,-0.46918 v -0.1419 c 0,-0.32926 -0.18797,-0.51722 -0.517238,-0.51722 h -2.117009 v -2.44659 c 0,-0.329265 -0.139909,-0.51724 -0.469177,-0.51724 z m -18.734963,2.63427 c -2.82229,0 -5.08192,2.02359 -5.12888,5.41037 0,3.19859 2.35289,5.40809 5.41039,5.40809 1.646328,0 2.86852,-0.70495 3.432986,-1.12831 0.23526,-0.18814 0.283014,-0.42392 0.141896,-0.65912 l -0.141896,-0.23346 c -0.141115,-0.28223 -0.374612,-0.33005 -0.656846,-0.14188 -0.470383,0.37629 -1.413295,0.94064 -2.730371,0.94064 -2.116709,0 -3.951319,-1.50604 -3.998279,-4.14019 h 7.479331 c 0.282247,0 0.517238,-0.23501 0.517238,-0.51725 0,-2.9634 -1.550291,-4.93889 -4.325569,-4.93889 z m 29.223883,0 c -3.057482,0 -5.409203,2.25755 -5.456161,5.45614 0,3.1986 2.352896,5.41039 5.410387,5.41039 1.881541,0 3.151307,-0.89493 3.668718,-1.31828 0.235262,-0.2352 0.280729,-0.42265 0.139619,-0.7049 L 71.33213,81.79165 c -0.188136,-0.28225 -0.376902,-0.33005 -0.659131,-0.14191 -0.470383,0.42334 -1.457552,1.08255 -2.915751,1.08255 -2.257826,0 -4.046348,-1.69419 -4.046348,-4.14019 0,-2.49302 1.788522,-4.18596 4.046348,-4.18596 1.223008,0 2.115816,0.61137 2.58618,0.94065 0.282241,0.18807 0.516748,0.18838 0.704913,-0.0938 l 0.1419,-0.23572 c 0.235271,-0.28224 0.187125,-0.51677 -0.0481,-0.7049 -0.517422,-0.42337 -1.645515,-1.17638 -3.432986,-1.17638 z m 15.899301,0 c -3.010451,0 -5.456156,2.30482 -5.456156,5.36231 0,3.10451 2.445705,5.45615 5.456156,5.45615 3.010478,0 5.456168,-2.35164 5.456168,-5.45615 0,-3.05749 -2.44569,-5.36231 -5.456168,-5.36231 z m -30.429991,0.15793 c -0.11518,0.0184 -0.226037,0.0959 -0.331857,0.22197 l -1.904164,2.26805 -1.423546,1.69818 -2.158205,-2.57015 -1.169505,-1.39608 c -0.105876,-0.12611 -0.225795,-0.19525 -0.350163,-0.20597 -0.124354,-0.01 -0.253796,0.0361 -0.379919,0.14189 l -0.288371,0.24258 c -0.252223,0.21167 -0.23901,0.44583 -0.02745,0.69807 l 1.904166,2.26803 1.579172,1.88357 -2.311543,2.75326 c -0.0024,0.002 -0.0035,0.005 -0.0046,0.006 l -1.167215,1.38923 c -0.211653,0.25223 -0.188132,0.51842 0.06408,0.73009 l 0.288368,0.2403 c 0.252239,0.21164 0.481813,0.15841 0.693465,-0.0939 l 1.901876,-2.26806 1.425834,-1.69818 2.158204,2.57244 c 10e-4,0.002 0.0035,0.004 0.0046,0.005 l 1.164928,1.3915 c 0.211652,0.25223 0.477834,0.27337 0.730081,0.0617 l 0.288371,-0.2403 c 0.252237,-0.21165 0.239134,-0.44581 0.02746,-0.69805 l -1.904161,-2.27034 -1.579177,-1.88129 2.311546,-2.75554 c 0.0024,-0.002 0.0035,-0.004 0.0046,-0.006 l 1.167214,-1.38921 c 0.211651,-0.25224 0.188132,-0.51844 -0.06408,-0.73009 l -0.288371,-0.2403 c -0.126112,-0.10587 -0.246408,-0.14655 -0.361607,-0.12815 z m 38.662308,0.0779 c -0.32928,0 -0.47148,0.18796 -0.47148,0.51723 v 6.06722 c 0,2.6812 1.9757,3.99829 4.42169,3.99829 2.446,0 4.421696,-1.31709 4.421696,-3.99829 v -6.06723 c 0.047,-0.32926 -0.13991,-0.51723 -0.469176,-0.51723 h -0.37763 c -0.32927,0 -0.51724,0.18797 -0.51724,0.51723 v 5.69189 c 0,1.59931 -1.035,3.05766 -3.05765,3.05766 -1.9756,0 -3.05763,-1.45835 -3.05763,-3.05766 v -5.69189 c 0,-0.32926 -0.18797,-0.51723 -0.51726,-0.51723 z m -53.403561,0.94063 c 1.505226,0 2.82161,1.08155 2.915753,3.24531 h -6.490633 c 0.32927,-2.11674 1.83447,-3.24531 3.57488,-3.24531 z m 45.171244,0.0939 c 2.210809,0 3.998303,1.74023 3.998303,4.09214 0,2.44598 -1.787494,4.23401 -3.998303,4.23401 -2.210781,0 -3.999385,-1.83505 -4.046332,-4.23401 0,-2.30488 1.835551,-4.09214 4.046332,-4.09214 z m 23.566303,0 c 2.21082,0 3.29339,2.02346 3.29339,4.1402 0,2.9634 -1.60102,4.18595 -3.34144,4.18595 -1.92856,0 -3.24413,-1.6459 -3.29108,-4.18595 0,-2.63415 1.50465,-4.1402 3.33913,-4.1402 z"
         id="path1174"
         inkscape:connector-curvature="0" /></g></g></svg>
